<mxfile host="Electron" modified="2024-07-13T07:59:13.632Z" agent="Mozilla/5.0 (Windows NT 10.0; Win64; x64) AppleWebKit/537.36 (KHTML, like Gecko) draw.io/24.5.3 Chrome/124.0.6367.207 Electron/30.0.6 Safari/537.36" etag="F0-2V1k3wE9HYi_GH02h" version="24.5.3" type="device">
  <diagram name="Page-1" id="icyWbrnhBMvIXJutqNOi">
    <mxGraphModel dx="1036" dy="606" grid="1" gridSize="10" guides="1" tooltips="1" connect="1" arrows="1" fold="1" page="1" pageScale="1" pageWidth="850" pageHeight="1100" math="0" shadow="0">
      <root>
        <mxCell id="0" />
        <mxCell id="1" parent="0" />
        <mxCell id="0WMZebH_5m-JqZ0Lt6cA-2" value="&lt;b&gt;ParkingLot&lt;/b&gt;" style="swimlane;fontStyle=0;childLayout=stackLayout;horizontal=1;startSize=26;fillColor=none;horizontalStack=0;resizeParent=1;resizeParentMax=0;resizeLast=0;collapsible=1;marginBottom=0;whiteSpace=wrap;html=1;" parent="1" vertex="1">
          <mxGeometry x="260" y="314" width="200" height="160" as="geometry">
            <mxRectangle x="570" y="70" width="100" height="30" as="alternateBounds" />
          </mxGeometry>
        </mxCell>
        <mxCell id="0WMZebH_5m-JqZ0Lt6cA-3" value="+ String Name" style="text;strokeColor=none;fillColor=none;align=left;verticalAlign=top;spacingLeft=4;spacingRight=4;overflow=hidden;rotatable=0;points=[[0,0.5],[1,0.5]];portConstraint=eastwest;whiteSpace=wrap;html=1;" parent="0WMZebH_5m-JqZ0Lt6cA-2" vertex="1">
          <mxGeometry y="26" width="200" height="26" as="geometry" />
        </mxCell>
        <mxCell id="0WMZebH_5m-JqZ0Lt6cA-4" value="+ String Address" style="text;strokeColor=none;fillColor=none;align=left;verticalAlign=top;spacingLeft=4;spacingRight=4;overflow=hidden;rotatable=0;points=[[0,0.5],[1,0.5]];portConstraint=eastwest;whiteSpace=wrap;html=1;" parent="0WMZebH_5m-JqZ0Lt6cA-2" vertex="1">
          <mxGeometry y="52" width="200" height="26" as="geometry" />
        </mxCell>
        <mxCell id="0WMZebH_5m-JqZ0Lt6cA-5" value="+ ParkingFloors[] parkingFloors&lt;div&gt;&lt;br&gt;&lt;div&gt;+ParkingGate[] entryGates&lt;/div&gt;&lt;div&gt;&lt;br&gt;&lt;/div&gt;&lt;div&gt;+ParkingGate[] exitGates&lt;/div&gt;&lt;div&gt;&lt;br&gt;&lt;/div&gt;&lt;/div&gt;" style="text;strokeColor=none;fillColor=none;align=left;verticalAlign=top;spacingLeft=4;spacingRight=4;overflow=hidden;rotatable=0;points=[[0,0.5],[1,0.5]];portConstraint=eastwest;whiteSpace=wrap;html=1;" parent="0WMZebH_5m-JqZ0Lt6cA-2" vertex="1">
          <mxGeometry y="78" width="200" height="82" as="geometry" />
        </mxCell>
        <mxCell id="0WMZebH_5m-JqZ0Lt6cA-9" value="&lt;b&gt;ParkingFloor&lt;/b&gt;" style="swimlane;fontStyle=0;childLayout=stackLayout;horizontal=1;startSize=26;fillColor=none;horizontalStack=0;resizeParent=1;resizeParentMax=0;resizeLast=0;collapsible=1;marginBottom=0;whiteSpace=wrap;html=1;" parent="1" vertex="1">
          <mxGeometry x="90" y="664" width="210" height="100" as="geometry" />
        </mxCell>
        <mxCell id="0WMZebH_5m-JqZ0Lt6cA-10" value="+ int floorNumber" style="text;strokeColor=none;fillColor=none;align=left;verticalAlign=top;spacingLeft=4;spacingRight=4;overflow=hidden;rotatable=0;points=[[0,0.5],[1,0.5]];portConstraint=eastwest;whiteSpace=wrap;html=1;" parent="0WMZebH_5m-JqZ0Lt6cA-9" vertex="1">
          <mxGeometry y="26" width="210" height="26" as="geometry" />
        </mxCell>
        <mxCell id="0WMZebH_5m-JqZ0Lt6cA-11" value="+ ParkingSpots[]parkingSpots" style="text;strokeColor=none;fillColor=none;align=left;verticalAlign=top;spacingLeft=4;spacingRight=4;overflow=hidden;rotatable=0;points=[[0,0.5],[1,0.5]];portConstraint=eastwest;whiteSpace=wrap;html=1;" parent="0WMZebH_5m-JqZ0Lt6cA-9" vertex="1">
          <mxGeometry y="52" width="210" height="26" as="geometry" />
        </mxCell>
        <mxCell id="0WMZebH_5m-JqZ0Lt6cA-73" value="" style="html=1;startArrow=diamondThin;startFill=1;edgeStyle=elbowEdgeStyle;elbow=vertical;startSize=10;endArrow=none;endFill=0;rounded=0;exitX=0.905;exitY=0;exitDx=0;exitDy=0;exitPerimeter=0;entryX=0.33;entryY=1.009;entryDx=0;entryDy=0;entryPerimeter=0;" parent="0WMZebH_5m-JqZ0Lt6cA-9" target="0WMZebH_5m-JqZ0Lt6cA-12" edge="1">
          <mxGeometry width="160" relative="1" as="geometry">
            <mxPoint x="70" y="170" as="sourcePoint" />
            <mxPoint x="157.24" y="-20" as="targetPoint" />
          </mxGeometry>
        </mxCell>
        <mxCell id="0WMZebH_5m-JqZ0Lt6cA-12" value="+ PaymentCounter[]paymentCounter" style="text;strokeColor=none;fillColor=none;align=left;verticalAlign=top;spacingLeft=4;spacingRight=4;overflow=hidden;rotatable=0;points=[[0,0.5],[1,0.5]];portConstraint=eastwest;whiteSpace=wrap;html=1;" parent="0WMZebH_5m-JqZ0Lt6cA-9" vertex="1">
          <mxGeometry y="78" width="210" height="22" as="geometry" />
        </mxCell>
        <mxCell id="0WMZebH_5m-JqZ0Lt6cA-14" value="&lt;b&gt;ParkingTicket&lt;/b&gt;" style="swimlane;fontStyle=0;childLayout=stackLayout;horizontal=1;startSize=26;fillColor=none;horizontalStack=0;resizeParent=1;resizeParentMax=0;resizeLast=0;collapsible=1;marginBottom=0;whiteSpace=wrap;html=1;" parent="1" vertex="1">
          <mxGeometry x="490" y="304" width="210" height="202" as="geometry" />
        </mxCell>
        <mxCell id="0WMZebH_5m-JqZ0Lt6cA-15" value="+ String ticketId" style="text;strokeColor=none;fillColor=none;align=left;verticalAlign=top;spacingLeft=4;spacingRight=4;overflow=hidden;rotatable=0;points=[[0,0.5],[1,0.5]];portConstraint=eastwest;whiteSpace=wrap;html=1;" parent="0WMZebH_5m-JqZ0Lt6cA-14" vertex="1">
          <mxGeometry y="26" width="210" height="26" as="geometry" />
        </mxCell>
        <mxCell id="0WMZebH_5m-JqZ0Lt6cA-16" value="+ ParkingSpot parkingSpot&lt;div&gt;&lt;br&gt;&lt;/div&gt;&lt;div&gt;+ Date entryTime&lt;/div&gt;&lt;div&gt;&lt;br&gt;&lt;/div&gt;&lt;div&gt;+ Vehicle vehicle&lt;/div&gt;&lt;div&gt;&lt;br&gt;&lt;/div&gt;" style="text;strokeColor=none;fillColor=none;align=left;verticalAlign=top;spacingLeft=4;spacingRight=4;overflow=hidden;rotatable=0;points=[[0,0.5],[1,0.5]];portConstraint=eastwest;whiteSpace=wrap;html=1;" parent="0WMZebH_5m-JqZ0Lt6cA-14" vertex="1">
          <mxGeometry y="52" width="210" height="90" as="geometry" />
        </mxCell>
        <mxCell id="0WMZebH_5m-JqZ0Lt6cA-17" value="+ ParkingGate entryGate&lt;div&gt;&lt;br&gt;&lt;/div&gt;&lt;div&gt;+ ParkingAttendant entryOperator&lt;/div&gt;" style="text;strokeColor=none;fillColor=none;align=left;verticalAlign=top;spacingLeft=4;spacingRight=4;overflow=hidden;rotatable=0;points=[[0,0.5],[1,0.5]];portConstraint=eastwest;whiteSpace=wrap;html=1;" parent="0WMZebH_5m-JqZ0Lt6cA-14" vertex="1">
          <mxGeometry y="142" width="210" height="60" as="geometry" />
        </mxCell>
        <mxCell id="0WMZebH_5m-JqZ0Lt6cA-18" value="&lt;b&gt;ParkingSpot&lt;/b&gt;" style="swimlane;fontStyle=0;childLayout=stackLayout;horizontal=1;startSize=20;fillColor=none;horizontalStack=0;resizeParent=1;resizeParentMax=0;resizeLast=0;collapsible=1;marginBottom=0;whiteSpace=wrap;html=1;" parent="1" vertex="1">
          <mxGeometry x="380" y="684" width="170" height="92" as="geometry" />
        </mxCell>
        <mxCell id="0WMZebH_5m-JqZ0Lt6cA-19" value="+ int spotNumber" style="text;strokeColor=none;fillColor=none;align=left;verticalAlign=top;spacingLeft=4;spacingRight=4;overflow=hidden;rotatable=0;points=[[0,0.5],[1,0.5]];portConstraint=eastwest;whiteSpace=wrap;html=1;" parent="0WMZebH_5m-JqZ0Lt6cA-18" vertex="1">
          <mxGeometry y="20" width="170" height="26" as="geometry" />
        </mxCell>
        <mxCell id="0WMZebH_5m-JqZ0Lt6cA-20" value="+ ParkingSpotType spotType" style="text;strokeColor=none;fillColor=none;align=left;verticalAlign=top;spacingLeft=4;spacingRight=4;overflow=hidden;rotatable=0;points=[[0,0.5],[1,0.5]];portConstraint=eastwest;whiteSpace=wrap;html=1;" parent="0WMZebH_5m-JqZ0Lt6cA-18" vertex="1">
          <mxGeometry y="46" width="170" height="20" as="geometry" />
        </mxCell>
        <mxCell id="0WMZebH_5m-JqZ0Lt6cA-21" value="+ ParkingSpotStatus status" style="text;strokeColor=none;fillColor=none;align=left;verticalAlign=top;spacingLeft=4;spacingRight=4;overflow=hidden;rotatable=0;points=[[0,0.5],[1,0.5]];portConstraint=eastwest;whiteSpace=wrap;html=1;" parent="0WMZebH_5m-JqZ0Lt6cA-18" vertex="1">
          <mxGeometry y="66" width="170" height="26" as="geometry" />
        </mxCell>
        <mxCell id="0WMZebH_5m-JqZ0Lt6cA-26" value="&lt;b&gt;PaymentCounter&lt;/b&gt;" style="swimlane;fontStyle=0;childLayout=stackLayout;horizontal=1;startSize=26;fillColor=none;horizontalStack=0;resizeParent=1;resizeParentMax=0;resizeLast=0;collapsible=1;marginBottom=0;whiteSpace=wrap;html=1;" parent="1" vertex="1">
          <mxGeometry x="90" y="834" width="140" height="52" as="geometry" />
        </mxCell>
        <mxCell id="0WMZebH_5m-JqZ0Lt6cA-27" value="+ int counterNumber" style="text;strokeColor=none;fillColor=none;align=left;verticalAlign=top;spacingLeft=4;spacingRight=4;overflow=hidden;rotatable=0;points=[[0,0.5],[1,0.5]];portConstraint=eastwest;whiteSpace=wrap;html=1;" parent="0WMZebH_5m-JqZ0Lt6cA-26" vertex="1">
          <mxGeometry y="26" width="140" height="26" as="geometry" />
        </mxCell>
        <mxCell id="0WMZebH_5m-JqZ0Lt6cA-30" value="&lt;b&gt;ParkingAttendant&lt;/b&gt;" style="swimlane;fontStyle=0;childLayout=stackLayout;horizontal=1;startSize=26;fillColor=none;horizontalStack=0;resizeParent=1;resizeParentMax=0;resizeLast=0;collapsible=1;marginBottom=0;whiteSpace=wrap;html=1;" parent="1" vertex="1">
          <mxGeometry x="650" y="704" width="140" height="78" as="geometry" />
        </mxCell>
        <mxCell id="0WMZebH_5m-JqZ0Lt6cA-31" value="+ String name" style="text;strokeColor=none;fillColor=none;align=left;verticalAlign=top;spacingLeft=4;spacingRight=4;overflow=hidden;rotatable=0;points=[[0,0.5],[1,0.5]];portConstraint=eastwest;whiteSpace=wrap;html=1;" parent="0WMZebH_5m-JqZ0Lt6cA-30" vertex="1">
          <mxGeometry y="26" width="140" height="26" as="geometry" />
        </mxCell>
        <mxCell id="0WMZebH_5m-JqZ0Lt6cA-32" value="+ String email" style="text;strokeColor=none;fillColor=none;align=left;verticalAlign=top;spacingLeft=4;spacingRight=4;overflow=hidden;rotatable=0;points=[[0,0.5],[1,0.5]];portConstraint=eastwest;whiteSpace=wrap;html=1;" parent="0WMZebH_5m-JqZ0Lt6cA-30" vertex="1">
          <mxGeometry y="52" width="140" height="26" as="geometry" />
        </mxCell>
        <mxCell id="0WMZebH_5m-JqZ0Lt6cA-34" value="&lt;b&gt;ParkingGate&lt;/b&gt;" style="swimlane;fontStyle=0;childLayout=stackLayout;horizontal=1;startSize=26;fillColor=none;horizontalStack=0;resizeParent=1;resizeParentMax=0;resizeLast=0;collapsible=1;marginBottom=0;whiteSpace=wrap;html=1;" parent="1" vertex="1">
          <mxGeometry x="100" y="524" width="170" height="106" as="geometry" />
        </mxCell>
        <mxCell id="0WMZebH_5m-JqZ0Lt6cA-35" value="+ String gateId" style="text;strokeColor=none;fillColor=none;align=left;verticalAlign=top;spacingLeft=4;spacingRight=4;overflow=hidden;rotatable=0;points=[[0,0.5],[1,0.5]];portConstraint=eastwest;whiteSpace=wrap;html=1;" parent="0WMZebH_5m-JqZ0Lt6cA-34" vertex="1">
          <mxGeometry y="26" width="170" height="26" as="geometry" />
        </mxCell>
        <mxCell id="0WMZebH_5m-JqZ0Lt6cA-36" value="+ ParkingGateType gateType" style="text;strokeColor=none;fillColor=none;align=left;verticalAlign=top;spacingLeft=4;spacingRight=4;overflow=hidden;rotatable=0;points=[[0,0.5],[1,0.5]];portConstraint=eastwest;whiteSpace=wrap;html=1;" parent="0WMZebH_5m-JqZ0Lt6cA-34" vertex="1">
          <mxGeometry y="52" width="170" height="28" as="geometry" />
        </mxCell>
        <mxCell id="0WMZebH_5m-JqZ0Lt6cA-37" value="+ parkingAttendant attendant" style="text;strokeColor=none;fillColor=none;align=left;verticalAlign=top;spacingLeft=4;spacingRight=4;overflow=hidden;rotatable=0;points=[[0,0.5],[1,0.5]];portConstraint=eastwest;whiteSpace=wrap;html=1;" parent="0WMZebH_5m-JqZ0Lt6cA-34" vertex="1">
          <mxGeometry y="80" width="170" height="26" as="geometry" />
        </mxCell>
        <mxCell id="0WMZebH_5m-JqZ0Lt6cA-38" value="&lt;b&gt;Vehicle&lt;/b&gt;" style="swimlane;fontStyle=0;childLayout=stackLayout;horizontal=1;startSize=26;fillColor=none;horizontalStack=0;resizeParent=1;resizeParentMax=0;resizeLast=0;collapsible=1;marginBottom=0;whiteSpace=wrap;html=1;" parent="1" vertex="1">
          <mxGeometry x="490" y="550" width="160" height="80" as="geometry" />
        </mxCell>
        <mxCell id="0WMZebH_5m-JqZ0Lt6cA-39" value="+ String licensePlate" style="text;strokeColor=none;fillColor=none;align=left;verticalAlign=top;spacingLeft=4;spacingRight=4;overflow=hidden;rotatable=0;points=[[0,0.5],[1,0.5]];portConstraint=eastwest;whiteSpace=wrap;html=1;" parent="0WMZebH_5m-JqZ0Lt6cA-38" vertex="1">
          <mxGeometry y="26" width="160" height="26" as="geometry" />
        </mxCell>
        <mxCell id="0WMZebH_5m-JqZ0Lt6cA-40" value="+ VehicleType vehicleType" style="text;strokeColor=none;fillColor=none;align=left;verticalAlign=top;spacingLeft=4;spacingRight=4;overflow=hidden;rotatable=0;points=[[0,0.5],[1,0.5]];portConstraint=eastwest;whiteSpace=wrap;html=1;" parent="0WMZebH_5m-JqZ0Lt6cA-38" vertex="1">
          <mxGeometry y="52" width="160" height="28" as="geometry" />
        </mxCell>
        <mxCell id="0WMZebH_5m-JqZ0Lt6cA-42" value="&lt;b&gt;Invoice&lt;/b&gt;" style="swimlane;fontStyle=0;childLayout=stackLayout;horizontal=1;startSize=26;fillColor=none;horizontalStack=0;resizeParent=1;resizeParentMax=0;resizeLast=0;collapsible=1;marginBottom=0;whiteSpace=wrap;html=1;" parent="1" vertex="1">
          <mxGeometry x="90" y="90" width="180" height="170" as="geometry" />
        </mxCell>
        <mxCell id="0WMZebH_5m-JqZ0Lt6cA-43" value="+ String invoiceId&amp;nbsp;" style="text;strokeColor=none;fillColor=none;align=left;verticalAlign=top;spacingLeft=4;spacingRight=4;overflow=hidden;rotatable=0;points=[[0,0.5],[1,0.5]];portConstraint=eastwest;whiteSpace=wrap;html=1;" parent="0WMZebH_5m-JqZ0Lt6cA-42" vertex="1">
          <mxGeometry y="26" width="180" height="26" as="geometry" />
        </mxCell>
        <mxCell id="0WMZebH_5m-JqZ0Lt6cA-44" value="+ Date exitTime" style="text;strokeColor=none;fillColor=none;align=left;verticalAlign=top;spacingLeft=4;spacingRight=4;overflow=hidden;rotatable=0;points=[[0,0.5],[1,0.5]];portConstraint=eastwest;whiteSpace=wrap;html=1;" parent="0WMZebH_5m-JqZ0Lt6cA-42" vertex="1">
          <mxGeometry y="52" width="180" height="26" as="geometry" />
        </mxCell>
        <mxCell id="0WMZebH_5m-JqZ0Lt6cA-45" value="+ ParkingTicket parkingTicket&lt;div&gt;&lt;br&gt;&lt;/div&gt;&lt;div&gt;+ double amount&lt;/div&gt;&lt;div&gt;&lt;br&gt;&lt;/div&gt;&lt;div&gt;+ Payment payment&lt;/div&gt;" style="text;strokeColor=none;fillColor=none;align=left;verticalAlign=top;spacingLeft=4;spacingRight=4;overflow=hidden;rotatable=0;points=[[0,0.5],[1,0.5]];portConstraint=eastwest;whiteSpace=wrap;html=1;" parent="0WMZebH_5m-JqZ0Lt6cA-42" vertex="1">
          <mxGeometry y="78" width="180" height="92" as="geometry" />
        </mxCell>
        <mxCell id="0WMZebH_5m-JqZ0Lt6cA-46" value="&lt;b&gt;Payment&lt;/b&gt;" style="swimlane;fontStyle=0;childLayout=stackLayout;horizontal=1;startSize=26;fillColor=none;horizontalStack=0;resizeParent=1;resizeParentMax=0;resizeLast=0;collapsible=1;marginBottom=0;whiteSpace=wrap;html=1;" parent="1" vertex="1">
          <mxGeometry x="490" y="90" width="170" height="170" as="geometry" />
        </mxCell>
        <mxCell id="0WMZebH_5m-JqZ0Lt6cA-47" value="+ double amount" style="text;strokeColor=none;fillColor=none;align=left;verticalAlign=top;spacingLeft=4;spacingRight=4;overflow=hidden;rotatable=0;points=[[0,0.5],[1,0.5]];portConstraint=eastwest;whiteSpace=wrap;html=1;" parent="0WMZebH_5m-JqZ0Lt6cA-46" vertex="1">
          <mxGeometry y="26" width="170" height="26" as="geometry" />
        </mxCell>
        <mxCell id="0WMZebH_5m-JqZ0Lt6cA-48" value="+ ParkingTicket parkingTicket" style="text;strokeColor=none;fillColor=none;align=left;verticalAlign=top;spacingLeft=4;spacingRight=4;overflow=hidden;rotatable=0;points=[[0,0.5],[1,0.5]];portConstraint=eastwest;whiteSpace=wrap;html=1;" parent="0WMZebH_5m-JqZ0Lt6cA-46" vertex="1">
          <mxGeometry y="52" width="170" height="38" as="geometry" />
        </mxCell>
        <mxCell id="0WMZebH_5m-JqZ0Lt6cA-49" value="+ PaymentType type&lt;div&gt;&lt;br&gt;&lt;/div&gt;&lt;div&gt;+PaymentStatus status&lt;/div&gt;&lt;div&gt;&lt;br&gt;&lt;/div&gt;&lt;div&gt;+Date time&lt;/div&gt;" style="text;strokeColor=none;fillColor=none;align=left;verticalAlign=top;spacingLeft=4;spacingRight=4;overflow=hidden;rotatable=0;points=[[0,0.5],[1,0.5]];portConstraint=eastwest;whiteSpace=wrap;html=1;" parent="0WMZebH_5m-JqZ0Lt6cA-46" vertex="1">
          <mxGeometry y="90" width="170" height="80" as="geometry" />
        </mxCell>
        <mxCell id="0WMZebH_5m-JqZ0Lt6cA-54" value="" style="html=1;startArrow=diamondThin;startFill=1;edgeStyle=elbowEdgeStyle;elbow=vertical;startSize=10;endArrow=none;endFill=0;rounded=0;exitX=0.428;exitY=-0.021;exitDx=0;exitDy=0;exitPerimeter=0;" parent="1" edge="1">
          <mxGeometry width="160" relative="1" as="geometry">
            <mxPoint x="172.76" y="524.004" as="sourcePoint" />
            <mxPoint x="260" y="386.23" as="targetPoint" />
          </mxGeometry>
        </mxCell>
        <mxCell id="0WMZebH_5m-JqZ0Lt6cA-55" value="" style="html=1;startArrow=diamondThin;startFill=0;edgeStyle=elbowEdgeStyle;elbow=vertical;startSize=10;endArrow=none;endFill=0;rounded=0;exitX=0.463;exitY=-0.012;exitDx=0;exitDy=0;exitPerimeter=0;" parent="1" source="0WMZebH_5m-JqZ0Lt6cA-38" target="0WMZebH_5m-JqZ0Lt6cA-17" edge="1">
          <mxGeometry width="160" relative="1" as="geometry">
            <mxPoint x="530" y="524" as="sourcePoint" />
            <mxPoint x="690" y="524" as="targetPoint" />
          </mxGeometry>
        </mxCell>
        <mxCell id="0WMZebH_5m-JqZ0Lt6cA-59" value="" style="endArrow=diamondThin;endFill=0;endSize=24;html=1;rounded=0;" parent="1" edge="1">
          <mxGeometry width="160" relative="1" as="geometry">
            <mxPoint x="270" y="174.5" as="sourcePoint" />
            <mxPoint x="491" y="175" as="targetPoint" />
          </mxGeometry>
        </mxCell>
        <mxCell id="0WMZebH_5m-JqZ0Lt6cA-61" value="" style="html=1;startArrow=diamondThin;startFill=0;edgeStyle=elbowEdgeStyle;elbow=vertical;startSize=10;endArrow=none;endFill=0;rounded=0;entryX=0.515;entryY=1.052;entryDx=0;entryDy=0;entryPerimeter=0;exitX=0.417;exitY=0.001;exitDx=0;exitDy=0;exitPerimeter=0;" parent="1" source="0WMZebH_5m-JqZ0Lt6cA-14" target="0WMZebH_5m-JqZ0Lt6cA-49" edge="1">
          <mxGeometry width="160" relative="1" as="geometry">
            <mxPoint x="560" y="284" as="sourcePoint" />
            <mxPoint x="720" y="284" as="targetPoint" />
            <Array as="points">
              <mxPoint x="640" y="284" />
            </Array>
          </mxGeometry>
        </mxCell>
        <mxCell id="0WMZebH_5m-JqZ0Lt6cA-62" value="" style="endArrow=diamondThin;endFill=0;endSize=24;html=1;rounded=0;entryX=0.25;entryY=0;entryDx=0;entryDy=0;" parent="1" target="0WMZebH_5m-JqZ0Lt6cA-14" edge="1">
          <mxGeometry width="160" relative="1" as="geometry">
            <mxPoint x="270" y="224" as="sourcePoint" />
            <mxPoint x="430" y="224" as="targetPoint" />
            <Array as="points" />
          </mxGeometry>
        </mxCell>
        <mxCell id="0WMZebH_5m-JqZ0Lt6cA-63" value="" style="html=1;startArrow=diamondThin;startFill=1;edgeStyle=elbowEdgeStyle;elbow=vertical;startSize=10;endArrow=none;endFill=0;rounded=0;exitX=0.905;exitY=0;exitDx=0;exitDy=0;exitPerimeter=0;" parent="1" source="0WMZebH_5m-JqZ0Lt6cA-9" edge="1">
          <mxGeometry width="160" relative="1" as="geometry">
            <mxPoint x="280" y="611.774" as="sourcePoint" />
            <mxPoint x="367.24" y="474" as="targetPoint" />
          </mxGeometry>
        </mxCell>
        <mxCell id="PGRc0Ndl0XMuW5AzQ3lM-5" value="1" style="edgeLabel;html=1;align=center;verticalAlign=middle;resizable=0;points=[];" parent="0WMZebH_5m-JqZ0Lt6cA-63" vertex="1" connectable="0">
          <mxGeometry x="0.9293" y="-4" relative="1" as="geometry">
            <mxPoint as="offset" />
          </mxGeometry>
        </mxCell>
        <mxCell id="0WMZebH_5m-JqZ0Lt6cA-67" value="" style="endArrow=diamondThin;endFill=1;endSize=24;html=1;rounded=0;" parent="1" edge="1">
          <mxGeometry width="160" relative="1" as="geometry">
            <mxPoint x="300" y="724" as="sourcePoint" />
            <mxPoint x="380" y="724" as="targetPoint" />
          </mxGeometry>
        </mxCell>
        <mxCell id="0WMZebH_5m-JqZ0Lt6cA-70" value="" style="endArrow=diamondThin;endFill=0;endSize=24;html=1;rounded=0;entryX=0.386;entryY=-0.069;entryDx=0;entryDy=0;entryPerimeter=0;" parent="1" target="0WMZebH_5m-JqZ0Lt6cA-30" edge="1">
          <mxGeometry width="160" relative="1" as="geometry">
            <mxPoint x="270" y="550" as="sourcePoint" />
            <mxPoint x="660" y="644" as="targetPoint" />
            <Array as="points">
              <mxPoint x="330" y="644" />
            </Array>
          </mxGeometry>
        </mxCell>
        <mxCell id="0WMZebH_5m-JqZ0Lt6cA-71" value="" style="html=1;startArrow=diamondThin;startFill=0;edgeStyle=elbowEdgeStyle;elbow=vertical;startSize=10;endArrow=none;endFill=0;rounded=0;exitX=0.683;exitY=-0.008;exitDx=0;exitDy=0;exitPerimeter=0;" parent="1" source="0WMZebH_5m-JqZ0Lt6cA-30" edge="1">
          <mxGeometry width="160" relative="1" as="geometry">
            <mxPoint x="660" y="549" as="sourcePoint" />
            <mxPoint x="691" y="506" as="targetPoint" />
          </mxGeometry>
        </mxCell>
        <mxCell id="0WMZebH_5m-JqZ0Lt6cA-72" value="" style="html=1;startArrow=diamondThin;startFill=0;edgeStyle=elbowEdgeStyle;elbow=vertical;startSize=10;endArrow=none;endFill=0;rounded=0;exitX=0.296;exitY=0.01;exitDx=0;exitDy=0;entryX=0.852;entryY=1.007;entryDx=0;entryDy=0;entryPerimeter=0;exitPerimeter=0;" parent="1" source="0WMZebH_5m-JqZ0Lt6cA-18" target="0WMZebH_5m-JqZ0Lt6cA-5" edge="1">
          <mxGeometry width="160" relative="1" as="geometry">
            <mxPoint x="400" y="537" as="sourcePoint" />
            <mxPoint x="431" y="494" as="targetPoint" />
            <Array as="points">
              <mxPoint x="296" y="502" />
            </Array>
          </mxGeometry>
        </mxCell>
        <mxCell id="0WMZebH_5m-JqZ0Lt6cA-82" value="&lt;p style=&quot;margin:0px;margin-top:4px;text-align:center;&quot;&gt;&amp;lt;&amp;lt;enumeration&amp;gt;&amp;gt;&lt;br&gt;&lt;b&gt;ParkingSpotType&lt;/b&gt;&lt;/p&gt;&lt;hr&gt;&lt;p style=&quot;margin:0px;margin-left:8px;text-align:left;&quot;&gt;SMALL,&lt;/p&gt;&lt;p style=&quot;margin:0px;margin-left:8px;text-align:left;&quot;&gt;MEDIUM,&lt;/p&gt;&lt;p style=&quot;margin:0px;margin-left:8px;text-align:left;&quot;&gt;LARGE,&lt;/p&gt;" style="shape=rect;html=1;overflow=fill;whiteSpace=wrap;" parent="1" vertex="1">
          <mxGeometry x="280" y="844" width="200" height="100" as="geometry" />
        </mxCell>
        <mxCell id="0WMZebH_5m-JqZ0Lt6cA-83" value="&lt;p style=&quot;margin:0px;margin-top:4px;text-align:center;&quot;&gt;&amp;lt;&amp;lt;enumeration&amp;gt;&amp;gt;&lt;br&gt;&lt;b&gt;ParkingSpotStatus&lt;/b&gt;&lt;/p&gt;&lt;hr&gt;&lt;p style=&quot;margin:0px;margin-left:8px;text-align:left;&quot;&gt;OCCUPIED,&lt;br&gt;FREE,&lt;/p&gt;&lt;p style=&quot;margin:0px;margin-left:8px;text-align:left;&quot;&gt;OUT OF ORDER,&lt;/p&gt;" style="shape=rect;html=1;overflow=fill;whiteSpace=wrap;" parent="1" vertex="1">
          <mxGeometry x="510" y="844" width="200" height="100" as="geometry" />
        </mxCell>
        <mxCell id="0WMZebH_5m-JqZ0Lt6cA-84" value="" style="html=1;startArrow=diamondThin;startFill=0;edgeStyle=elbowEdgeStyle;elbow=vertical;startSize=10;endArrow=none;endFill=0;rounded=0;exitX=0.652;exitY=-0.014;exitDx=0;exitDy=0;exitPerimeter=0;" parent="1" source="0WMZebH_5m-JqZ0Lt6cA-82" edge="1">
          <mxGeometry width="160" relative="1" as="geometry">
            <mxPoint x="465" y="979" as="sourcePoint" />
            <mxPoint x="410" y="782" as="targetPoint" />
          </mxGeometry>
        </mxCell>
        <mxCell id="0WMZebH_5m-JqZ0Lt6cA-85" value="" style="html=1;startArrow=diamondThin;startFill=0;edgeStyle=elbowEdgeStyle;elbow=vertical;startSize=10;endArrow=none;endFill=0;rounded=0;" parent="1" edge="1">
          <mxGeometry width="160" relative="1" as="geometry">
            <mxPoint x="530" y="844" as="sourcePoint" />
            <mxPoint x="530" y="783" as="targetPoint" />
          </mxGeometry>
        </mxCell>
        <mxCell id="0WMZebH_5m-JqZ0Lt6cA-86" value="&lt;p style=&quot;margin:0px;margin-top:4px;text-align:center;&quot;&gt;&amp;lt;&amp;lt;enumeration&amp;gt;&amp;gt;&lt;br&gt;&lt;b&gt;ParkingGateType&lt;/b&gt;&lt;/p&gt;&lt;hr&gt;&lt;p style=&quot;margin:0px;margin-left:8px;text-align:left;&quot;&gt;ENTRY,&lt;/p&gt;&lt;p style=&quot;margin:0px;margin-left:8px;text-align:left;&quot;&gt;EXIT,&lt;/p&gt;" style="shape=rect;html=1;overflow=fill;whiteSpace=wrap;" parent="1" vertex="1">
          <mxGeometry x="80" y="324" width="170" height="80" as="geometry" />
        </mxCell>
        <mxCell id="0WMZebH_5m-JqZ0Lt6cA-87" value="&lt;p style=&quot;margin:0px;margin-top:4px;text-align:center;&quot;&gt;&amp;lt;&amp;lt;enumeration&amp;gt;&amp;gt;&lt;br&gt;&lt;b&gt;VehicleType&lt;/b&gt;&lt;/p&gt;&lt;hr&gt;&lt;p style=&quot;margin:0px;margin-left:8px;text-align:left;&quot;&gt;CAR,&lt;br&gt;TRUCK,&lt;/p&gt;&lt;p style=&quot;margin:0px;margin-left:8px;text-align:left;&quot;&gt;BUS,&lt;/p&gt;&lt;p style=&quot;margin:0px;margin-left:8px;text-align:left;&quot;&gt;BIKE,&lt;/p&gt;&lt;p style=&quot;margin:0px;margin-left:8px;text-align:left;&quot;&gt;SCOOTER&lt;/p&gt;" style="shape=rect;html=1;overflow=fill;whiteSpace=wrap;" parent="1" vertex="1">
          <mxGeometry x="780" y="537" width="110" height="127" as="geometry" />
        </mxCell>
        <mxCell id="0WMZebH_5m-JqZ0Lt6cA-88" value="" style="endArrow=diamondThin;endFill=0;endSize=24;html=1;rounded=0;entryX=0.008;entryY=0.422;entryDx=0;entryDy=0;entryPerimeter=0;exitX=1;exitY=0.5;exitDx=0;exitDy=0;" parent="1" source="0WMZebH_5m-JqZ0Lt6cA-39" target="0WMZebH_5m-JqZ0Lt6cA-87" edge="1">
          <mxGeometry width="160" relative="1" as="geometry">
            <mxPoint x="660" y="588" as="sourcePoint" />
            <mxPoint x="750" y="592" as="targetPoint" />
            <Array as="points" />
          </mxGeometry>
        </mxCell>
        <mxCell id="0WMZebH_5m-JqZ0Lt6cA-89" value="&lt;p style=&quot;margin:0px;margin-top:4px;text-align:center;&quot;&gt;&amp;lt;&amp;lt;enumeration&amp;gt;&amp;gt;&lt;br&gt;&lt;b&gt;PaymentType&lt;/b&gt;&lt;/p&gt;&lt;hr&gt;&lt;p style=&quot;margin:0px;margin-left:8px;text-align:left;&quot;&gt;CASH,&lt;br&gt;CREDITCARD,&lt;/p&gt;&lt;p style=&quot;margin:0px;margin-left:8px;text-align:left;&quot;&gt;UPI&lt;/p&gt;" style="shape=rect;html=1;overflow=fill;whiteSpace=wrap;" parent="1" vertex="1">
          <mxGeometry x="760" y="90" width="110" height="94" as="geometry" />
        </mxCell>
        <mxCell id="0WMZebH_5m-JqZ0Lt6cA-90" value="&lt;p style=&quot;margin:0px;margin-top:4px;text-align:center;&quot;&gt;&amp;lt;&amp;lt;enumeration&amp;gt;&amp;gt;&lt;br&gt;&lt;b&gt;PaymentStatus&lt;/b&gt;&lt;/p&gt;&lt;hr&gt;&lt;p style=&quot;margin:0px;margin-left:8px;text-align:left;&quot;&gt;DONE,&lt;br&gt;PENDING&lt;/p&gt;" style="shape=rect;html=1;overflow=fill;whiteSpace=wrap;" parent="1" vertex="1">
          <mxGeometry x="760" y="204" width="120" height="80" as="geometry" />
        </mxCell>
        <mxCell id="0WMZebH_5m-JqZ0Lt6cA-91" value="" style="endArrow=diamondThin;endFill=0;endSize=24;html=1;rounded=0;entryX=-0.004;entryY=0.679;entryDx=0;entryDy=0;entryPerimeter=0;" parent="1" target="0WMZebH_5m-JqZ0Lt6cA-89" edge="1">
          <mxGeometry width="160" relative="1" as="geometry">
            <mxPoint x="660" y="154" as="sourcePoint" />
            <mxPoint x="881" y="154.5" as="targetPoint" />
          </mxGeometry>
        </mxCell>
        <mxCell id="0WMZebH_5m-JqZ0Lt6cA-92" value="" style="endArrow=diamondThin;endFill=0;endSize=24;html=1;rounded=0;entryX=0;entryY=0.403;entryDx=0;entryDy=0;entryPerimeter=0;" parent="1" target="0WMZebH_5m-JqZ0Lt6cA-90" edge="1">
          <mxGeometry width="160" relative="1" as="geometry">
            <mxPoint x="660" y="234" as="sourcePoint" />
            <mxPoint x="881" y="234.5" as="targetPoint" />
          </mxGeometry>
        </mxCell>
        <mxCell id="PGRc0Ndl0XMuW5AzQ3lM-1" value="1" style="text;html=1;align=center;verticalAlign=middle;resizable=0;points=[];autosize=1;strokeColor=none;fillColor=none;" parent="1" vertex="1">
          <mxGeometry x="265" y="152" width="30" height="30" as="geometry" />
        </mxCell>
        <mxCell id="PGRc0Ndl0XMuW5AzQ3lM-2" value="1" style="text;html=1;align=center;verticalAlign=middle;resizable=0;points=[];autosize=1;strokeColor=none;fillColor=none;" parent="1" vertex="1">
          <mxGeometry x="445" y="152" width="30" height="30" as="geometry" />
        </mxCell>
        <mxCell id="PGRc0Ndl0XMuW5AzQ3lM-3" value="1" style="text;html=1;align=center;verticalAlign=middle;resizable=0;points=[];autosize=1;strokeColor=none;fillColor=none;" parent="1" vertex="1">
          <mxGeometry x="275" y="212" width="30" height="30" as="geometry" />
        </mxCell>
        <mxCell id="PGRc0Ndl0XMuW5AzQ3lM-4" value="1" style="text;html=1;align=center;verticalAlign=middle;resizable=0;points=[];autosize=1;strokeColor=none;fillColor=none;" parent="1" vertex="1">
          <mxGeometry x="505" y="272" width="30" height="30" as="geometry" />
        </mxCell>
        <mxCell id="PGRc0Ndl0XMuW5AzQ3lM-6" value="m" style="text;html=1;align=center;verticalAlign=middle;resizable=0;points=[];autosize=1;strokeColor=none;fillColor=none;" parent="1" vertex="1">
          <mxGeometry x="275" y="632" width="30" height="30" as="geometry" />
        </mxCell>
        <mxCell id="PGRc0Ndl0XMuW5AzQ3lM-7" value="1" style="text;html=1;align=center;verticalAlign=middle;resizable=0;points=[];autosize=1;strokeColor=none;fillColor=none;" parent="1" vertex="1">
          <mxGeometry x="725" y="122" width="30" height="30" as="geometry" />
        </mxCell>
        <mxCell id="PGRc0Ndl0XMuW5AzQ3lM-8" value="m" style="text;html=1;align=center;verticalAlign=middle;resizable=0;points=[];autosize=1;strokeColor=none;fillColor=none;" parent="1" vertex="1">
          <mxGeometry x="655" y="132" width="30" height="30" as="geometry" />
        </mxCell>
        <mxCell id="PGRc0Ndl0XMuW5AzQ3lM-9" value="1" style="text;html=1;align=center;verticalAlign=middle;resizable=0;points=[];autosize=1;strokeColor=none;fillColor=none;" parent="1" vertex="1">
          <mxGeometry x="730" y="204" width="30" height="30" as="geometry" />
        </mxCell>
        <mxCell id="PGRc0Ndl0XMuW5AzQ3lM-10" value="m" style="text;html=1;align=center;verticalAlign=middle;resizable=0;points=[];autosize=1;strokeColor=none;fillColor=none;" parent="1" vertex="1">
          <mxGeometry x="655" y="212" width="30" height="30" as="geometry" />
        </mxCell>
        <mxCell id="PGRc0Ndl0XMuW5AzQ3lM-11" value="1" style="text;html=1;align=center;verticalAlign=middle;resizable=0;points=[];autosize=1;strokeColor=none;fillColor=none;" parent="1" vertex="1">
          <mxGeometry x="575" y="282" width="30" height="30" as="geometry" />
        </mxCell>
        <mxCell id="PGRc0Ndl0XMuW5AzQ3lM-12" value="1" style="text;html=1;align=center;verticalAlign=middle;resizable=0;points=[];autosize=1;strokeColor=none;fillColor=none;" parent="1" vertex="1">
          <mxGeometry x="575" y="252" width="30" height="30" as="geometry" />
        </mxCell>
        <mxCell id="PGRc0Ndl0XMuW5AzQ3lM-13" value="" style="endArrow=diamondThin;endFill=0;endSize=24;html=1;rounded=0;entryX=0.299;entryY=0.997;entryDx=0;entryDy=0;entryPerimeter=0;" parent="1" target="0WMZebH_5m-JqZ0Lt6cA-86" edge="1">
          <mxGeometry width="160" relative="1" as="geometry">
            <mxPoint x="130" y="524" as="sourcePoint" />
            <mxPoint x="130" y="474" as="targetPoint" />
          </mxGeometry>
        </mxCell>
        <mxCell id="PGRc0Ndl0XMuW5AzQ3lM-14" value="m" style="text;html=1;align=center;verticalAlign=middle;resizable=0;points=[];autosize=1;strokeColor=none;fillColor=none;" parent="1" vertex="1">
          <mxGeometry x="105" y="502" width="30" height="30" as="geometry" />
        </mxCell>
        <mxCell id="PGRc0Ndl0XMuW5AzQ3lM-15" value="1" style="text;html=1;align=center;verticalAlign=middle;resizable=0;points=[];autosize=1;strokeColor=none;fillColor=none;" parent="1" vertex="1">
          <mxGeometry x="100" y="404" width="30" height="30" as="geometry" />
        </mxCell>
        <mxCell id="PGRc0Ndl0XMuW5AzQ3lM-16" value="1" style="text;html=1;align=center;verticalAlign=middle;resizable=0;points=[];autosize=1;strokeColor=none;fillColor=none;" parent="1" vertex="1">
          <mxGeometry x="235" y="432" width="30" height="30" as="geometry" />
        </mxCell>
        <mxCell id="PGRc0Ndl0XMuW5AzQ3lM-17" value="m" style="text;html=1;align=center;verticalAlign=middle;resizable=0;points=[];autosize=1;strokeColor=none;fillColor=none;" parent="1" vertex="1">
          <mxGeometry x="170" y="502" width="30" height="30" as="geometry" />
        </mxCell>
        <mxCell id="PGRc0Ndl0XMuW5AzQ3lM-18" value="1" style="text;html=1;align=center;verticalAlign=middle;resizable=0;points=[];autosize=1;strokeColor=none;fillColor=none;" parent="1" vertex="1">
          <mxGeometry x="130" y="764" width="30" height="30" as="geometry" />
        </mxCell>
        <mxCell id="PGRc0Ndl0XMuW5AzQ3lM-19" value="1" style="text;html=1;align=center;verticalAlign=middle;resizable=0;points=[];autosize=1;strokeColor=none;fillColor=none;" parent="1" vertex="1">
          <mxGeometry x="135" y="812" width="30" height="30" as="geometry" />
        </mxCell>
        <mxCell id="PGRc0Ndl0XMuW5AzQ3lM-20" value="1" style="text;html=1;align=center;verticalAlign=middle;resizable=0;points=[];autosize=1;strokeColor=none;fillColor=none;" parent="1" vertex="1">
          <mxGeometry x="295" y="702" width="30" height="30" as="geometry" />
        </mxCell>
        <mxCell id="PGRc0Ndl0XMuW5AzQ3lM-21" value="m" style="text;html=1;align=center;verticalAlign=middle;resizable=0;points=[];autosize=1;strokeColor=none;fillColor=none;" parent="1" vertex="1">
          <mxGeometry x="355" y="692" width="30" height="30" as="geometry" />
        </mxCell>
        <mxCell id="PGRc0Ndl0XMuW5AzQ3lM-22" value="1" style="text;html=1;align=center;verticalAlign=middle;resizable=0;points=[];autosize=1;strokeColor=none;fillColor=none;" parent="1" vertex="1">
          <mxGeometry x="385" y="822" width="30" height="30" as="geometry" />
        </mxCell>
        <mxCell id="PGRc0Ndl0XMuW5AzQ3lM-23" value="m" style="text;html=1;align=center;verticalAlign=middle;resizable=0;points=[];autosize=1;strokeColor=none;fillColor=none;" parent="1" vertex="1">
          <mxGeometry x="385" y="772" width="30" height="30" as="geometry" />
        </mxCell>
        <mxCell id="PGRc0Ndl0XMuW5AzQ3lM-24" value="1" style="text;html=1;align=center;verticalAlign=middle;resizable=0;points=[];autosize=1;strokeColor=none;fillColor=none;" parent="1" vertex="1">
          <mxGeometry x="525" y="822" width="30" height="30" as="geometry" />
        </mxCell>
        <mxCell id="PGRc0Ndl0XMuW5AzQ3lM-25" value="m" style="text;html=1;align=center;verticalAlign=middle;resizable=0;points=[];autosize=1;strokeColor=none;fillColor=none;" parent="1" vertex="1">
          <mxGeometry x="525" y="772" width="30" height="30" as="geometry" />
        </mxCell>
        <mxCell id="PGRc0Ndl0XMuW5AzQ3lM-26" value="1" style="text;html=1;align=center;verticalAlign=middle;resizable=0;points=[];autosize=1;strokeColor=none;fillColor=none;" parent="1" vertex="1">
          <mxGeometry x="425" y="472" width="30" height="30" as="geometry" />
        </mxCell>
        <mxCell id="PGRc0Ndl0XMuW5AzQ3lM-27" value="m" style="text;html=1;align=center;verticalAlign=middle;resizable=0;points=[];autosize=1;strokeColor=none;fillColor=none;" parent="1" vertex="1">
          <mxGeometry x="425" y="662" width="30" height="30" as="geometry" />
        </mxCell>
        <mxCell id="PGRc0Ndl0XMuW5AzQ3lM-29" value="1" style="text;html=1;align=center;verticalAlign=middle;resizable=0;points=[];autosize=1;strokeColor=none;fillColor=none;" parent="1" vertex="1">
          <mxGeometry x="565" y="524" width="30" height="30" as="geometry" />
        </mxCell>
        <mxCell id="PGRc0Ndl0XMuW5AzQ3lM-30" value="m" style="text;html=1;align=center;verticalAlign=middle;resizable=0;points=[];autosize=1;strokeColor=none;fillColor=none;" parent="1" vertex="1">
          <mxGeometry x="595" y="502" width="30" height="30" as="geometry" />
        </mxCell>
        <mxCell id="PGRc0Ndl0XMuW5AzQ3lM-31" value="1" style="text;html=1;align=center;verticalAlign=middle;resizable=0;points=[];autosize=1;strokeColor=none;fillColor=none;" parent="1" vertex="1">
          <mxGeometry x="755" y="562" width="30" height="30" as="geometry" />
        </mxCell>
        <mxCell id="PGRc0Ndl0XMuW5AzQ3lM-32" value="m" style="text;html=1;align=center;verticalAlign=middle;resizable=0;points=[];autosize=1;strokeColor=none;fillColor=none;" parent="1" vertex="1">
          <mxGeometry x="645" y="562" width="30" height="30" as="geometry" />
        </mxCell>
        <mxCell id="PGRc0Ndl0XMuW5AzQ3lM-33" value="m" style="text;html=1;align=center;verticalAlign=middle;resizable=0;points=[];autosize=1;strokeColor=none;fillColor=none;" parent="1" vertex="1">
          <mxGeometry x="265" y="532" width="30" height="30" as="geometry" />
        </mxCell>
        <mxCell id="PGRc0Ndl0XMuW5AzQ3lM-34" value="1" style="text;html=1;align=center;verticalAlign=middle;resizable=0;points=[];autosize=1;strokeColor=none;fillColor=none;" parent="1" vertex="1">
          <mxGeometry x="675" y="662" width="30" height="30" as="geometry" />
        </mxCell>
        <mxCell id="PGRc0Ndl0XMuW5AzQ3lM-35" value="1" style="text;html=1;align=center;verticalAlign=middle;resizable=0;points=[];autosize=1;strokeColor=none;fillColor=none;" parent="1" vertex="1">
          <mxGeometry x="750" y="674" width="30" height="30" as="geometry" />
        </mxCell>
        <mxCell id="PGRc0Ndl0XMuW5AzQ3lM-36" value="m" style="text;html=1;align=center;verticalAlign=middle;resizable=0;points=[];autosize=1;strokeColor=none;fillColor=none;" parent="1" vertex="1">
          <mxGeometry x="685" y="502" width="30" height="30" as="geometry" />
        </mxCell>
        <mxCell id="WeiS8Je_MaWxSrRrYIEA-1" value="&lt;p style=&quot;margin:0px;margin-top:4px;text-align:center;&quot;&gt;&amp;lt;&amp;lt;enumeration&amp;gt;&amp;gt;&lt;br&gt;&lt;b&gt;ParkingTicketStatus&lt;/b&gt;&lt;/p&gt;&lt;hr&gt;&lt;p style=&quot;margin:0px;margin-left:8px;text-align:left;&quot;&gt;DONE,&lt;/p&gt;&lt;p style=&quot;margin:0px;margin-left:8px;text-align:left;&quot;&gt;PENDING&lt;/p&gt;" style="shape=rect;html=1;overflow=fill;whiteSpace=wrap;" vertex="1" parent="1">
          <mxGeometry x="770" y="365" width="140" height="80" as="geometry" />
        </mxCell>
        <mxCell id="WeiS8Je_MaWxSrRrYIEA-2" value="" style="endArrow=diamondThin;endFill=0;endSize=24;html=1;rounded=0;entryX=-0.004;entryY=0.625;entryDx=0;entryDy=0;entryPerimeter=0;" edge="1" parent="1" target="WeiS8Je_MaWxSrRrYIEA-1">
          <mxGeometry width="160" relative="1" as="geometry">
            <mxPoint x="700" y="414" as="sourcePoint" />
            <mxPoint x="770" y="414" as="targetPoint" />
          </mxGeometry>
        </mxCell>
        <mxCell id="WeiS8Je_MaWxSrRrYIEA-3" value="1" style="text;html=1;align=center;verticalAlign=middle;resizable=0;points=[];autosize=1;strokeColor=none;fillColor=none;" vertex="1" parent="1">
          <mxGeometry x="745" y="382" width="30" height="30" as="geometry" />
        </mxCell>
        <mxCell id="WeiS8Je_MaWxSrRrYIEA-4" value="m" style="text;html=1;align=center;verticalAlign=middle;resizable=0;points=[];autosize=1;strokeColor=none;fillColor=none;" vertex="1" parent="1">
          <mxGeometry x="695" y="382" width="30" height="30" as="geometry" />
        </mxCell>
      </root>
    </mxGraphModel>
  </diagram>
</mxfile>
